<svg aria-hidden="true" style="position: absolute; width: 0; height: 0; overflow: hidden;" version="1.1" xmlns="http://www.w3.org/2000/svg" xmlns:xlink="http://www.w3.org/1999/xlink">
<defs>
<symbol id="icon-btn-burger" viewBox="0 0 32 32">
<path stroke-linejoin="round" stroke-linecap="round" stroke-miterlimit="4" stroke-width="2.6667" d="M5.3 7.967h21.333M5.3 15.967h21.333M5.3 23.967h21.333"></path>
</symbol>
<symbol id="icon-facebook" viewBox="0 0 32 32">
<path fill="#cdcab3" style="fill: var(--color1, #cdcab3)" d="M14.26 11.916v1.836h-1.344v2.244h1.344v6.67h2.763v-6.67h1.854s0.174-1.077 0.259-2.254h-2.102v-1.533c0-0.231 0.302-0.539 0.6-0.539h1.504v-2.338h-2.048c-2.898 0-2.83 2.247-2.83 2.583z"></path>
<path fill="#cdcab3" style="fill: var(--color1, #cdcab3)" d="M8 5.333c-1.473 0-2.667 1.194-2.667 2.667v0 16c0 1.473 1.194 2.667 2.667 2.667v0h16c1.473 0 2.667-1.194 2.667-2.667v0-16c0-1.473-1.194-2.667-2.667-2.667v0h-16zM8 2.667h16c2.946 0 5.333 2.388 5.333 5.333v0 16c0 2.946-2.388 5.333-5.333 5.333v0h-16c-2.946 0-5.333-2.388-5.333-5.333v0-16c0-2.946 2.388-5.333 5.333-5.333v0z"></path>
</symbol>
<symbol id="icon-telegram" viewBox="0 0 32 32">
<path fill="#cdcab3" style="fill: var(--color1, #cdcab3)" d="M15.925 0c-8.805 0.042-15.925 7.19-15.925 16 0 8.837 7.164 16 16 16 0.026 0 0.052-0 0.079-0h-0.004c8.805-0.042 15.925-7.19 15.925-16 0-8.837-7.164-16-16-16-0.026 0-0.053 0-0.079 0h0.004zM22.541 9.632c0.133-0.002 0.428 0.030 0.62 0.187 0.124 0.108 0.208 0.259 0.228 0.43l0 0.003c0.021 0.124 0.048 0.408 0.026 0.629-0.239 2.53-1.282 8.669-1.813 11.502-0.224 1.2-0.665 1.602-1.093 1.64-0.928 0.086-1.634-0.613-2.534-1.203-1.408-0.924-2.203-1.499-3.57-2.4-1.58-1.040-0.556-1.613 0.344-2.546 0.236-0.245 4.33-3.97 4.41-4.307 0.009-0.043 0.018-0.2-0.075-0.282-0.094-0.084-0.232-0.056-0.332-0.033-0.141 0.032-2.391 1.52-6.748 4.46-0.64 0.44-1.218 0.653-1.736 0.64-0.571-0.011-1.669-0.322-2.487-0.587-1.003-0.327-1.798-0.499-1.73-1.051 0.037-0.289 0.434-0.584 1.191-0.885 4.664-2.032 7.774-3.372 9.331-4.019 4.442-1.848 5.366-2.169 5.967-2.179z"></path>
</symbol>
<symbol id="icon-btn-close" viewBox="0 0 32 32">
<path fill="#263e24" style="fill: var(--color2, #263e24)" d="M16 17.866l-6.534 6.534c-0.244 0.244-0.555 0.366-0.934 0.366s-0.688-0.122-0.933-0.366-0.367-0.556-0.367-0.934c0-0.378 0.122-0.688 0.367-0.933l6.533-6.534-6.533-6.534c-0.245-0.244-0.367-0.555-0.367-0.933s0.122-0.689 0.367-0.934c0.244-0.245 0.555-0.366 0.933-0.366s0.69 0.122 0.934 0.366l6.534 6.534 6.533-6.534c0.245-0.245 0.556-0.366 0.934-0.366s0.689 0.122 0.934 0.366c0.244 0.245 0.366 0.555 0.366 0.934s-0.122 0.688-0.366 0.933l-6.534 6.534 6.534 6.534c0.244 0.244 0.366 0.555 0.366 0.933s-0.122 0.689-0.366 0.934c-0.245 0.244-0.556 0.366-0.934 0.366s-0.688-0.122-0.933-0.366l-6.534-6.534z"></path>
</symbol>
<symbol id="icon-arrow" viewBox="0 0 32 32">
<path fill="#a1a099" style="fill: var(--color3, #a1a099)" d="M11.896 3.855l11.222 11.21c0.133 0.133 0.227 0.278 0.282 0.434 0.056 0.156 0.084 0.323 0.084 0.501s-0.028 0.345-0.084 0.501c-0.064 0.17-0.16 0.315-0.282 0.433l-0 0-11.222 11.244c-0.311 0.311-0.699 0.467-1.165 0.467s-0.866-0.167-1.198-0.501c-0.333-0.333-0.5-0.723-0.5-1.167s0.167-0.834 0.5-1.168l9.789-9.809-9.789-9.809c-0.311-0.312-0.467-0.695-0.467-1.151s0.167-0.851 0.5-1.185c0.333-0.334 0.722-0.501 1.165-0.501s0.833 0.167 1.165 0.501z"></path>
</symbol>
<symbol id="icon-instagram" viewBox="0 0 32 32">
<path fill="#cdcab3" style="fill: var(--color1, #cdcab3)" d="M9.954 1.421c1.564-0.072 2.062-0.088 6.046-0.088s4.483 0.018 6.045 0.088c1.563 0.071 2.629 0.32 3.563 0.682 1.016 0.39 1.883 0.966 2.596 1.692l0.001 0.001c0.727 0.714 1.302 1.58 1.673 2.547l0.017 0.049c0.363 0.934 0.611 2.001 0.683 3.56 0.072 1.566 0.088 2.065 0.088 6.048s-0.018 4.483-0.088 6.046c-0.071 1.56-0.32 2.627-0.683 3.56-0.389 1.017-0.964 1.883-1.69 2.597l-0.001 0.001c-0.714 0.727-1.58 1.302-2.547 1.675l-0.049 0.017c-0.933 0.363-2 0.61-3.56 0.683-1.565 0.072-2.064 0.088-6.048 0.088s-4.482-0.018-6.046-0.088c-1.56-0.071-2.627-0.32-3.56-0.683-1.017-0.389-1.883-0.964-2.597-1.69l-0.001-0.001c-0.727-0.714-1.303-1.58-1.676-2.547l-0.017-0.049c-0.361-0.933-0.61-2-0.681-3.56-0.072-1.566-0.088-2.065-0.088-6.048s0.018-4.482 0.088-6.045c0.071-1.563 0.32-2.63 0.682-3.563 0.39-1.016 0.965-1.882 1.692-2.595l0.001-0.001c0.714-0.727 1.58-1.303 2.547-1.676l0.049-0.017c0.934-0.361 2.002-0.61 3.562-0.681zM21.927 4.061c-1.547-0.070-2.011-0.085-5.927-0.085s-4.38 0.015-5.927 0.085c-1.43 0.066-2.206 0.305-2.724 0.506-0.684 0.267-1.173 0.582-1.687 1.096-0.474 0.462-0.848 1.026-1.085 1.656l-0.010 0.031c-0.201 0.517-0.44 1.293-0.505 2.724-0.071 1.547-0.086 2.011-0.086 5.927s0.015 4.38 0.085 5.927c0.066 1.431 0.305 2.206 0.506 2.724 0.235 0.636 0.61 1.214 1.096 1.687 0.462 0.474 1.026 0.848 1.655 1.085l0.031 0.010c0.517 0.201 1.293 0.44 2.724 0.505 1.547 0.071 2.009 0.086 5.927 0.086s4.38-0.015 5.927-0.085c1.431-0.066 2.206-0.305 2.724-0.506 0.684-0.267 1.173-0.582 1.687-1.096 0.474-0.462 0.848-1.026 1.085-1.655l0.010-0.031c0.201-0.517 0.44-1.293 0.505-2.724 0.071-1.547 0.086-2.011 0.086-5.927s-0.015-4.38-0.085-5.927c-0.066-1.43-0.305-2.206-0.506-2.724-0.267-0.684-0.582-1.173-1.096-1.687-0.462-0.474-1.026-0.848-1.656-1.085l-0.031-0.010c-0.517-0.201-1.293-0.44-2.724-0.505zM14.126 20.521c0.556 0.238 1.203 0.376 1.882 0.376 2.701 0 4.891-2.19 4.891-4.891 0-1.354-0.55-2.58-1.44-3.466l-0-0c-0.885-0.884-2.108-1.431-3.458-1.431-2.449 0-4.478 1.798-4.838 4.147l-0.003 0.027c-0.034 0.216-0.053 0.464-0.053 0.717 0 2.026 1.231 3.765 2.987 4.509l0.032 0.012zM10.669 10.67c1.364-1.363 3.248-2.206 5.33-2.206 4.163 0 7.538 3.374 7.54 7.537v0c0 0.001 0 0.001 0 0.002 0 4.164-3.375 7.539-7.539 7.539s-7.539-3.375-7.539-7.539c0-2.083 0.844-3.968 2.21-5.332l0-0zM25.21 9.584c0.367-0.328 0.597-0.803 0.597-1.331 0-0.985-0.798-1.783-1.783-1.783-0.492 0-0.937 0.199-1.26 0.521v0c-0.323 0.323-0.523 0.769-0.523 1.261 0 0.985 0.798 1.783 1.783 1.783 0.456 0 0.872-0.171 1.188-0.453l-0.002 0.002z"></path>
</symbol>
</defs>
</svg>
